<svg width="190" height="22" viewBox="0 0 190 22" fill="none" xmlns="http://www.w3.org/2000/svg">
<path d="M0.46875 16V3.5H12.9688V6.625H3.59375V12.875H12.9688V16H0.46875ZM23.9062 12.875V6.625H17.6562V12.875H23.9062ZM14.5312 16V3.5H27.0312V16H14.5312ZM39.5312 19.125V17.5625H37.9688V16H36.4062V14.4375H34.8438V12.875H33.2812V11.3125H31.7188V16H28.5938V8.1875H37.9688V6.625H28.5938V3.5H41.0938V11.3125H37.9688V12.875H39.5312V14.4375H41.0938V19.125H39.5312ZM52.0312 12.875V6.625H45.7812V12.875H52.0312ZM42.6562 16V3.5H55.1562V16H42.6562ZM67.6562 17.5625V16H66.0938V14.4375H64.5312V12.875H62.9688V11.3125H61.4062V9.75H59.8438V16H56.7188V1.9375H58.2812V3.5H59.8438V5.0625H61.4062V6.625H62.9688V8.1875H64.5312V9.75H66.0938V3.5H69.2188V17.5625H67.6562ZM70.7812 16V3.5H72.3438V5.0625H73.9062V6.625H75.4688V8.1875H77.0312V9.75H78.5938V11.3125H80.1562V12.875H81.7188V14.4375H83.2812V16H78.5938V14.4375H77.0312V12.875H75.4688V11.3125H73.9062V16H70.7812ZM102.031 17.5625V16H100.469V14.4375H98.9062V12.875H97.3438V11.3125H95.7812V9.75H94.2188V16H91.0938V1.9375H92.6562V3.5H94.2188V5.0625H95.7812V6.625H97.3438V8.1875H98.9062V9.75H100.469V3.5H103.594V17.5625H102.031ZM105.156 16V12.875H117.656V16H105.156ZM105.156 11.3125V8.1875H117.656V11.3125H105.156ZM105.156 6.625V3.5H117.656V6.625H105.156ZM123.906 16V6.625H119.219V3.5H131.719V6.625H127.031V16H123.906ZM133.281 16V3.5H136.406V8.1875H137.969V6.625H141.094V8.1875H142.656V3.5H145.781V16H144.219V14.4375H142.656V12.875H141.094V11.3125H137.969V12.875H136.406V14.4375H134.844V16H133.281ZM156.719 12.875V6.625H150.469V12.875H156.719ZM147.344 16V3.5H159.844V16H147.344ZM172.344 19.125V17.5625H170.781V16H169.219V14.4375H167.656V12.875H166.094V11.3125H164.531V16H161.406V8.1875H170.781V6.625H161.406V3.5H173.906V11.3125H170.781V12.875H172.344V14.4375H173.906V19.125H172.344ZM186.406 19.125V17.5625H184.844V16H183.281V14.4375H181.719V12.875H180.156V11.3125H178.594V16H175.469V3.5H178.594V8.1875H180.156V6.625H181.719V5.0625H183.281V3.5H187.969V5.0625H186.406V6.625H184.844V8.1875H183.281V11.3125H184.844V12.875H186.406V14.4375H187.969V19.125H186.406Z" fill="black"/>
</svg>
