<svg width="304" height="125" viewBox="0 0 304 125" fill="none" xmlns="http://www.w3.org/2000/svg">
<path d="M0 45V9.5H35.5V18.375H8.875V36.125H35.5V45H0ZM66.5625 36.125V18.375H48.8125V36.125H66.5625ZM39.9375 45V9.5H75.4375V45H39.9375ZM110.938 53.875V49.4375H106.5V45H102.062V40.5625H97.625V36.125H93.1875V31.6875H88.75V45H79.875V22.8125H106.5V18.375H79.875V9.5H115.375V31.6875H106.5V36.125H110.938V40.5625H115.375V53.875H110.938ZM146.438 36.125V18.375H128.688V36.125H146.438ZM119.812 45V9.5H155.312V45H119.812ZM190.812 49.4375V45H186.375V40.5625H181.938V36.125H177.5V31.6875H173.062V27.25H168.625V45H159.75V5.0625H164.188V9.5H168.625V13.9375H173.062V18.375H177.5V22.8125H181.938V27.25H186.375V9.5H195.25V49.4375H190.812ZM199.688 45V9.5H204.125V13.9375H208.562V18.375H213V22.8125H217.438V27.25H221.875V31.6875H226.312V36.125H230.75V40.5625H235.188V45H221.875V40.5625H217.438V36.125H213V31.6875H208.562V45H199.688ZM31.0625 111.438V107H26.625V102.562H22.1875V98.125H17.75V93.6875H13.3125V89.25H8.875V107H0V67.0625H4.4375V71.5H8.875V75.9375H13.3125V80.375H17.75V84.8125H22.1875V89.25H26.625V71.5H35.5V111.438H31.0625ZM39.9375 107V98.125H75.4375V107H39.9375ZM39.9375 93.6875V84.8125H75.4375V93.6875H39.9375ZM39.9375 80.375V71.5H75.4375V80.375H39.9375ZM93.1875 107V80.375H79.875V71.5H115.375V80.375H102.062V107H93.1875ZM119.812 107V71.5H128.688V84.8125H133.125V80.375H142V84.8125H146.438V71.5H155.312V107H150.875V102.562H146.438V98.125H142V93.6875H133.125V98.125H128.688V102.562H124.25V107H119.812ZM186.375 98.125V80.375H168.625V98.125H186.375ZM159.75 107V71.5H195.25V107H159.75ZM230.75 115.875V111.438H226.312V107H221.875V102.562H217.438V98.125H213V93.6875H208.562V107H199.688V84.8125H226.312V80.375H199.688V71.5H235.188V93.6875H226.312V98.125H230.75V102.562H235.188V115.875H230.75ZM270.688 115.875V111.438H266.25V107H261.812V102.562H257.375V98.125H252.938V93.6875H248.5V107H239.625V71.5H248.5V84.8125H252.938V80.375H257.375V75.9375H261.812V71.5H275.125V75.9375H270.688V80.375H266.25V84.8125H261.812V93.6875H266.25V98.125H270.688V102.562H275.125V115.875H270.688Z" fill="url(#paint0_linear)"/>
<defs>
<linearGradient id="paint0_linear" x1="280" y1="124.705" x2="280.116" y2="-114.164" gradientUnits="userSpaceOnUse">
<stop stop-color="#26282C"/>
<stop offset="1" stop-color="#35373B"/>
</linearGradient>
</defs>
</svg>
