<svg width="325" height="124" viewBox="0 0 325 124" fill="none" xmlns="http://www.w3.org/2000/svg">
<path d="M0 44V8.5H35.5V17.375H8.875V35.125H35.5V44H0ZM66.5625 35.125V17.375H48.8125V35.125H66.5625ZM39.9375 44V8.5H75.4375V44H39.9375ZM110.938 52.875V48.4375H106.5V44H102.062V39.5625H97.625V35.125H93.1875V30.6875H88.75V44H79.875V21.8125H106.5V17.375H79.875V8.5H115.375V30.6875H106.5V35.125H110.938V39.5625H115.375V52.875H110.938ZM146.438 35.125V17.375H128.688V35.125H146.438ZM119.812 44V8.5H155.312V44H119.812ZM190.812 48.4375V44H186.375V39.5625H181.938V35.125H177.5V30.6875H173.062V26.25H168.625V44H159.75V4.0625H164.188V8.5H168.625V12.9375H173.062V17.375H177.5V21.8125H181.938V26.25H186.375V8.5H195.25V48.4375H190.812ZM199.688 44V8.5H204.125V12.9375H208.562V17.375H213V21.8125H217.438V26.25H221.875V30.6875H226.312V35.125H230.75V39.5625H235.188V44H221.875V39.5625H217.438V35.125H213V30.6875H208.562V44H199.688ZM31.0625 110.438V106H26.625V101.562H22.1875V97.125H17.75V92.6875H13.3125V88.25H8.875V106H0V66.0625H4.4375V70.5H8.875V74.9375H13.3125V79.375H17.75V83.8125H22.1875V88.25H26.625V70.5H35.5V110.438H31.0625ZM39.9375 106V97.125H75.4375V106H39.9375ZM39.9375 92.6875V83.8125H75.4375V92.6875H39.9375ZM39.9375 79.375V70.5H75.4375V79.375H39.9375ZM93.1875 106V79.375H79.875V70.5H115.375V79.375H102.062V106H93.1875ZM119.812 106V70.5H128.688V83.8125H133.125V79.375H142V83.8125H146.438V70.5H155.312V106H150.875V101.562H146.438V97.125H142V92.6875H133.125V97.125H128.688V101.562H124.25V106H119.812ZM186.375 97.125V79.375H168.625V97.125H186.375ZM159.75 106V70.5H195.25V106H159.75ZM230.75 114.875V110.438H226.312V106H221.875V101.562H217.438V97.125H213V92.6875H208.562V106H199.688V83.8125H226.312V79.375H199.688V70.5H235.188V92.6875H226.312V97.125H230.75V101.562H235.188V114.875H230.75ZM270.688 114.875V110.438H266.25V106H261.812V101.562H257.375V97.125H252.938V92.6875H248.5V106H239.625V70.5H248.5V83.8125H252.938V79.375H257.375V74.9375H261.812V70.5H275.125V74.9375H270.688V79.375H266.25V83.8125H261.812V92.6875H266.25V97.125H270.688V101.562H275.125V114.875H270.688Z" fill="white"/>
</svg>
