<svg width="388" height="404" viewBox="0 0 388 404" fill="none" xmlns="http://www.w3.org/2000/svg">
<mask id="mask0" mask-type="alpha" maskUnits="userSpaceOnUse" x="0" y="0" width="388" height="404">
<path d="M91.5579 67.7045C101.369 70.5076 124.845 102.744 135.357 118.511C137.985 117.343 143.066 114.832 142.365 114.132C141.489 113.256 100.318 73.8894 96.8137 63.3245C91.558 44.053 73.1623 62.4486 91.5579 67.7045Z" fill="black"/>
<path d="M345.592 230.637C337.708 231.513 306.173 217.205 288.653 209.613C279.309 225.673 265.002 256.04 265.002 256.04C268.506 255.164 269.382 258.668 270.258 263.924C271.133 269.18 281.645 263.048 277.265 260.42C272.885 257.792 272.01 256.04 272.885 255.164C290.405 245.528 342.088 298.963 351.724 304.219C357.856 315.607 364.863 297.211 355.228 298.963C328.656 279.984 276.389 240.798 279.893 235.893C284.273 229.761 309.677 244.653 316.685 254.288C315.81 270.056 334.603 246.675 322.817 249.032C318.437 249.908 307.429 241.834 310.553 240.273C317.56 236.769 360.484 260.42 375.375 271.808C385.011 287.576 392.895 261.296 381.507 262.172C374.499 264.8 288.653 222.753 292.157 220.125C295.661 217.497 336.271 230.373 342.088 237.645C349.096 246.404 353.476 229.761 345.592 230.637Z" fill="black"/>
<path d="M302.669 179.829C300.747 181.11 293.033 180.413 288.654 179.829V185.961C290.698 185.377 296.537 183.333 300.917 185.961C308.801 191.217 307.925 176.325 302.669 179.829Z" fill="black"/>
<path d="M363.988 109.751C362.333 112.441 302.085 135.446 275.514 143.913L285.149 165.813C312.305 142.161 355.427 140.908 358.732 143.913C368.367 152.674 369.243 124.643 358.732 133.402C349.096 136.03 289.354 154.075 288.653 149.169C287.777 143.037 360.484 115.008 367.492 116.759C377.128 118.512 370.996 98.3643 363.988 109.751Z" fill="black"/>
<path d="M296.537 56.3161C286.726 75.2373 259.746 107.123 245.73 113.255L255.366 122.014C259.746 107.123 296.537 64.1999 302.669 59.82C314.933 54.5644 304.421 37.045 296.537 56.3161Z" fill="black"/>
<path d="M287.778 24.7813C287.027 34.5463 245.731 108 229.963 105.372C236.387 111.211 246.607 115.007 246.607 115.007C244.855 106.247 286.917 31.6615 293.91 26.5333C307.049 16.8974 289.53 2.00553 287.778 24.7813Z" fill="black"/>
<path d="M155.505 12.5169C156.205 68.5796 174.484 93.1071 183.536 98.363L158.133 103.619C162.513 58.0684 149.081 15.7289 144.117 12.5169C134.481 -2.37468 162.513 -5.87823 155.505 12.5169Z" fill="black"/>
<path d="M14.4444 233.222C66.7364 212.996 96.3064 220.827 104.555 227.271L99.9735 201.737C59.3296 222.764 15.0334 226.064 10.204 222.653C-7.20465 219.256 -0.0183235 246.576 14.4444 233.222Z" fill="black"/>
<path d="M218.872 348.674C219.537 292.611 201.861 267.645 192.94 262.17L218.464 257.535C212.976 302.965 225.372 345.619 230.256 348.951C239.526 364.073 211.418 366.893 218.872 348.674Z" fill="black"/>
<path d="M67.7648 288.265C116.684 260.872 129.503 233.098 129.797 222.635L146.548 242.443C104.437 260.351 73.655 292.375 73.204 298.27C64.7232 313.848 48.2564 290.895 67.7648 288.265Z" fill="black"/>
<path d="M234.343 52.813C234.922 57.7344 222.955 87.8515 215.071 100.992L224.707 103.62C226.459 88.7275 236.518 56.8186 239.599 52.813C248.358 41.4245 232.591 37.9207 234.343 52.813Z" fill="black"/>
<path d="M47.858 74.9386C48.8015 77.953 101.546 115.061 125.22 129.801L110.497 148.66C89.9887 119.059 48.4981 107.244 44.5556 109.345C33.062 115.468 39.1033 88.0814 47.1395 99.1555C55.8335 104.072 109.307 136.248 111.192 131.665C113.548 125.937 49.9624 80.8951 42.739 80.8699C32.9681 80.2003 43.8642 62.1786 47.858 74.9386Z" fill="black"/>
<path d="M40.3229 191.152C60.8559 185.437 102.578 183.45 116.617 189.528L116.46 176.507C102.578 183.45 46.0923 185.779 38.7082 184.276C26.5042 178.883 20.8472 198.516 40.3229 191.152Z" fill="black"/>
<path d="M170.864 390.112C167.972 380.754 179.365 297.262 194.995 293.908C186.874 290.84 175.974 291.068 175.974 291.068C180.824 298.57 169.135 383.397 164.518 390.737C155.842 404.529 177.61 411.936 170.864 390.112Z" fill="black"/>
<path d="M261.405 357.681C250.227 302.739 227.682 282.065 217.807 278.596L241.778 268.68C245.998 314.245 267.114 353.324 272.592 355.55C284.843 368.376 257.963 377.063 261.405 357.681Z" fill="black"/>
<path d="M147.824 337.631C147.327 332.701 159.793 302.787 167.895 289.779L158.304 286.991C156.305 301.853 145.716 333.59 142.569 337.544C133.621 348.785 149.328 352.55 147.824 337.631Z" fill="black"/>
<path d="M94.781 353.234C134.094 313.258 138.637 283.008 135.995 272.88L157.615 287.216C122.189 316.182 101.585 355.533 102.8 361.32C99.0117 378.647 76.7852 361.212 94.781 353.234Z" fill="black"/>
<path d="M292.158 195.597C292.158 250.75 247.448 295.459 192.296 295.459C137.144 295.459 92.4341 250.75 92.4341 195.597C92.4341 140.445 137.144 95.7356 192.296 95.7356C247.448 95.7356 292.158 140.445 292.158 195.597Z" fill="black"/>
</mask>
<g mask="url(#mask0)">
<path d="M168.017 463.8C435.642 463.8 337.395 323.259 331.983 296.522C326.534 269.585 328.642 240.445 315.871 216.11C314.256 213.036 312.436 210.12 310.427 207.351C293.225 183.598 262.412 171.089 232.664 169.631C231.216 169.558 229.774 169.511 228.332 169.484C207.023 191.061 184.198 210.393 156.763 223.001C104.447 247.048 39.638 241.421 -7.74789 208.71C-39.7039 186.656 -62.9536 152.822 -73.5007 115.511C-73.5532 115.564 -73.5951 115.606 -73.6371 115.658C-73.763 115.794 -73.8836 115.925 -74.0042 116.062C-74.3504 116.45 -74.6965 116.838 -75.0374 117.231C-75.1633 117.368 -75.2839 117.504 -75.3993 117.64C-75.8294 118.128 -76.2594 118.621 -76.6738 119.119C-77.151 119.675 -77.6178 120.231 -78.0846 120.793C-78.3311 121.091 -78.5776 121.39 -78.8188 121.695C-79.9989 123.137 -81.1475 124.6 -82.2646 126.09C-82.6737 126.625 -83.0775 127.165 -83.4761 127.71C-83.6125 127.894 -83.7436 128.072 -83.8747 128.256C-84.2996 128.838 -84.7191 129.425 -85.1335 130.018C-85.2174 130.128 -85.2961 130.243 -85.3695 130.354C-85.5845 130.647 -85.7891 130.946 -85.9936 131.245C-86.8118 132.425 -87.609 133.621 -88.3904 134.822C-88.574 135.105 -88.7576 135.389 -88.9359 135.672C-89.1771 136.044 -89.4184 136.422 -89.6492 136.799C-89.8485 137.114 -90.0478 137.434 -90.2418 137.754C-90.9813 138.944 -91.6998 140.145 -92.4026 141.362C-92.5705 141.651 -92.7383 141.939 -92.9009 142.228C-93.1684 142.694 -93.4358 143.166 -93.6981 143.638C-94.3589 144.824 -94.9988 146.025 -95.6281 147.231C-95.8327 147.619 -96.032 148.007 -96.2313 148.401C-96.3938 148.721 -96.5564 149.041 -96.719 149.36C-97.5582 151.034 -98.3659 152.728 -99.1421 154.432C-99.8029 155.885 -100.438 157.338 -101.051 158.817C-108.499 176.664 -112.6 196.248 -112.6 216.781C-112.6 258.403 -95.733 296.081 -68.4658 323.348C-51.5149 340.299 -30.5414 353.233 -7.1028 360.586C1.51949 363.292 10.4774 365.243 19.6976 366.365C20.3532 366.444 21.0088 366.523 21.6644 366.591C21.8532 366.612 22.0473 366.633 22.2361 366.654C22.7343 366.706 23.2326 366.759 23.7308 366.801C24.0402 366.832 24.3444 366.864 24.6539 366.89C25.278 366.942 25.9021 366.995 26.5262 367.042C27.1608 367.094 27.7902 367.136 28.4248 367.173C29.1801 367.22 29.9353 367.262 30.6905 367.299C31.2202 367.325 31.7499 367.346 32.2797 367.367C32.7622 367.388 33.2447 367.404 33.7272 367.419C34.4982 367.44 35.2692 367.456 36.0401 367.467C36.7272 367.477 37.4142 367.482 38.1013 367.482L168.017 463.8Z" fill="url(#paint0_linear)"/>
<path d="M297.933 209.166C297.933 209.166 443.438 198.773 549.943 214.373L368.087 445.611C350.297 425.288 248.781 428.178 243.368 401.44C162.821 175.388 297.933 209.166 297.933 209.166Z" fill="url(#paint1_linear)"/>
<path d="M347.027 103.015C303.941 83.2107 288.441 137.711 244.941 170.711C244.941 170.711 266.316 182.154 283.518 205.907C360.589 179.017 332.886 204.27 400.442 200.711C466.284 228.618 347.027 103.015 347.027 103.015Z" fill="url(#paint2_linear)"/>
<path d="M355.942 93.7105C427.472 -150.528 16.0716 -75.5865 38.1023 66.2577C36.7754 66.2577 35.4485 66.2735 34.1269 66.3102C33.8384 66.3154 33.5499 66.3259 33.2615 66.3364C32.6373 66.3521 32.0185 66.3783 31.3996 66.4046C31.022 66.4203 30.6444 66.436 30.272 66.457C29.7685 66.4832 29.2702 66.5095 28.772 66.541C28.4259 66.5619 28.0849 66.5829 27.744 66.6091C27.4136 66.6301 27.0885 66.6511 26.7685 66.6773C26.4171 66.7035 26.0657 66.7297 25.7143 66.7612C25.1322 66.8084 24.55 66.8556 23.9731 66.9133C23.5063 66.9553 23.0396 67.0025 22.578 67.0497C22.1112 67.0969 21.6497 67.1441 21.1882 67.1965C20.7266 67.249 20.2651 67.3014 19.8036 67.3591C18.9382 67.464 18.0781 67.5742 17.2179 67.6948C16.5309 67.7892 15.8491 67.8888 15.1673 67.9937C14.4435 68.1038 13.725 68.2192 13.0064 68.3399C10.5414 68.749 8.0974 69.2262 5.67959 69.756C5.3177 69.8346 4.96106 69.9133 4.59917 69.9972C2.4436 70.4849 0.303758 71.0199 -1.8151 71.6021C-2.25041 71.7227 -2.69096 71.8433 -3.12627 71.9692C-4.03885 72.2262 -4.94619 72.4937 -5.84827 72.7717C-6.24687 72.8923 -6.64022 73.0129 -7.03882 73.1388C-7.43217 73.2594 -7.82552 73.3853 -8.21363 73.5111C-9.11572 73.7996 -10.0073 74.0986 -10.8989 74.408C-11.7538 74.7017 -12.6035 75.0006 -13.4531 75.3101C-16.4164 76.3852 -19.3324 77.5548 -22.2065 78.8135C-22.6156 78.9918 -23.0247 79.1702 -23.4338 79.3537C-23.8429 79.5373 -24.2519 79.7209 -24.6558 79.9097C-25.0649 80.0932 -25.4687 80.2821 -25.8726 80.4761C-26.2187 80.6335 -26.5596 80.796 -26.9005 80.9586C-29.4442 82.1754 -31.9459 83.4656 -34.4057 84.8135C-34.7361 84.997 -35.0613 85.1806 -35.3917 85.3642C-35.7798 85.5792 -36.1627 85.7995 -36.5508 86.0198C-38.0927 86.9009 -39.6242 87.8082 -41.1346 88.747C-41.4231 88.9253 -41.7116 89.1036 -41.9948 89.282C-42.4563 89.5757 -42.9231 89.8694 -43.3846 90.1683C-43.5892 90.2942 -43.7885 90.4253 -43.9877 90.5564C-44.528 90.9131 -45.0682 91.2645 -45.6084 91.6264C-45.6293 91.6421 -45.6503 91.6578 -45.6765 91.6736C-46.2954 92.0879 -46.9091 92.5075 -47.5227 92.9323C-47.6171 92.9952 -47.7115 93.0582 -47.8059 93.1264C-48.451 93.5722 -49.0961 94.0284 -49.7359 94.49C-50.402 94.9672 -51.0681 95.455 -51.7237 95.9427C-52.2114 96.3046 -52.694 96.6665 -53.1712 97.0337C-53.4072 97.212 -53.6433 97.3903 -53.8793 97.5739C-54.4667 98.0301 -55.0541 98.4864 -55.6362 98.9532C-56.2079 99.4042 -56.7743 99.8605 -57.3355 100.322C-57.4981 100.453 -57.6607 100.59 -57.8233 100.726C-58.3425 101.151 -58.8565 101.586 -59.3705 102.021C-59.3967 102.042 -59.4177 102.063 -59.4439 102.084C-60.068 102.614 -60.6921 103.149 -61.311 103.694C-61.332 103.715 -61.353 103.731 -61.3792 103.752C-61.8617 104.182 -62.3495 104.612 -62.8267 105.042C-62.9998 105.205 -63.1781 105.362 -63.3512 105.52C-63.8547 105.976 -64.3529 106.437 -64.8459 106.904C-64.998 107.041 -65.1501 107.182 -65.297 107.324C-65.7428 107.743 -66.1781 108.158 -66.6134 108.588C-67.1431 109.091 -67.6676 109.611 -68.1921 110.13C-68.4858 110.423 -68.7795 110.717 -69.0679 111.011C-70.0067 111.96 -70.935 112.92 -71.8424 113.89C-72.0836 114.147 -72.3249 114.404 -72.5609 114.661C-72.8756 115.002 -73.1903 115.343 -73.4997 115.684L-48.0583 191.21C32.9417 247.71 42.9417 252.975 103.442 240.711C163.942 228.447 223.24 193.936 277.442 143.211C331.643 92.4859 289.762 156.072 355.942 93.7105Z" fill="url(#paint3_linear)"/>
</g>
<defs>
<linearGradient id="paint0_linear" x1="-213.242" y1="48.4186" x2="248.874" y2="346.775" gradientUnits="userSpaceOnUse">
<stop stop-color="#9435C4"/>
<stop offset="0.9602" stop-color="#FCF055"/>
</linearGradient>
<linearGradient id="paint1_linear" x1="357.735" y1="155.524" x2="539.591" y2="276.165" gradientUnits="userSpaceOnUse">
<stop stop-color="#66DED8"/>
<stop offset="0.3198" stop-color="#68E0D3"/>
<stop offset="0.7203" stop-color="#6CE4C3"/>
<stop offset="1" stop-color="#70E9B4"/>
</linearGradient>
<linearGradient id="paint2_linear" x1="162.005" y1="215.518" x2="738.527" y2="172.896" gradientUnits="userSpaceOnUse">
<stop stop-color="#525DC6"/>
<stop offset="0.9801" stop-color="#7DE4FC"/>
</linearGradient>
<linearGradient id="paint3_linear" x1="-70.5115" y1="-33.8292" x2="277.197" y2="221.905" gradientUnits="userSpaceOnUse">
<stop offset="0.3086" stop-color="#C66DF1"/>
<stop offset="0.99" stop-color="#5EA6F6"/>
</linearGradient>
</defs>
</svg>
