<svg width="105" height="16" viewBox="0 0 105 16" fill="none" xmlns="http://www.w3.org/2000/svg">
<rect y="1" width="13" height="13" fill="white"/>
<rect x="15" y="1" width="13" height="13" fill="white"/>
<rect x="30" y="1" width="13" height="13" fill="white"/>
<rect x="45" y="1" width="13" height="13" fill="white"/>
<rect x="60" y="1" width="13" height="13" fill="white"/>
<rect x="75" y="1" width="13" height="13" fill="white"/>
<rect x="90" y="1" width="13" height="13" fill="white"/>
<path d="M12.5 14H11.25H10H8.75H7.5H6.25H5H3.75H2.5H1.25H0L0 12.75L0 11.5L0 10.25L0 9L0 7.75L0 6.5L0 5.25L0 4L0 2.75L0 1.5L0 0.25H1.25H2.5H3.75H5H6.25H7.5H8.75H10H11.25H12.5H13.75V1.5V2.75V4V5.25V6.5V7.75V9V10.25V11.5V12.75V14H12.5ZM8.75 10.25H10V9V7.75V6.5H8.75H7.5H6.25H5V5.25H6.25H7.5H8.75H10V4H8.75H7.5H6.25H5H3.75V5.25V6.5V7.75H5H6.25H7.5H8.75V9H7.5H6.25H5H3.75V10.25H5H6.25H7.5H8.75ZM27.5 14H26.25H25H23.75H22.5H21.25H20H18.75H17.5H16.25H15V12.75V11.5V10.25V9V7.75V6.5V5.25V4V2.75V1.5V0.25H16.25H17.5H18.75H20H21.25H22.5H23.75H25H26.25H27.5H28.75V1.5V2.75V4V5.25V6.5V7.75V9V10.25V11.5V12.75V14H27.5ZM23.75 10.25H25V9V7.75V6.5V5.25V4H23.75V5.25V6.5V7.75V9H22.5H21.25H20V7.75V6.5V5.25V4H18.75V5.25V6.5V7.75V9V10.25H20H21.25H22.5H23.75ZM42.5 14H41.25H40H38.75H37.5H36.25H35H33.75H32.5H31.25H30V12.75V11.5V10.25V9V7.75V6.5V5.25V4V2.75V1.5V0.25H31.25H32.5H33.75H35H36.25H37.5H38.75H40H41.25H42.5H43.75V1.5V2.75V4V5.25V6.5V7.75V9V10.25V11.5V12.75V14H42.5ZM38.75 10.25H40V9V7.75V6.5H38.75H37.5H36.25H35V5.25H36.25H37.5H38.75H40V4H38.75H37.5H36.25H35H33.75V5.25V6.5V7.75H35H36.25H37.5H38.75V9H37.5H36.25H35H33.75V10.25H35H36.25H37.5H38.75ZM57.5 14H56.25H55H53.75H52.5H51.25H50H48.75H47.5H46.25H45V12.75V11.5V10.25V9V7.75V6.5V5.25V4V2.75V1.5V0.25H46.25H47.5H48.75H50H51.25H52.5H53.75H55H56.25H57.5H58.75V1.5V2.75V4V5.25V6.5V7.75V9V10.25V11.5V12.75V14H57.5ZM50 10.25V9V7.75H51.25H52.5H53.75H55V6.5V5.25V4H53.75H52.5H51.25H50H48.75V5.25V6.5V7.75V9V10.25H50ZM52.5 5.25H53.75V6.5H52.5H51.25H50V5.25H51.25H52.5ZM72.5 14H71.25H70H68.75H67.5H66.25H65H63.75H62.5H61.25H60V12.75V11.5V10.25V9V7.75V6.5V5.25V4V2.75V1.5V0.25H61.25H62.5H63.75H65H66.25H67.5H68.75H70H71.25H72.5H73.75V1.5V2.75V4V5.25V6.5V7.75V9V10.25V11.5V12.75V14H72.5ZM68.75 10.25H70V9H68.75H67.5H66.25H65V7.75H66.25H67.5H68.75V6.5H67.5H66.25H65V5.25H66.25H67.5H68.75H70V4H68.75H67.5H66.25H65H63.75V5.25V6.5V7.75V9V10.25H65H66.25H67.5H68.75ZM87.5 14H86.25H85H83.75H82.5H81.25H80H78.75H77.5H76.25H75V12.75V11.5V10.25V9V7.75V6.5V5.25V4V2.75V1.5V0.25H76.25H77.5H78.75H80H81.25H82.5H83.75H85H86.25H87.5H88.75V1.5V2.75V4V5.25V6.5V7.75V9V10.25V11.5V12.75V14H87.5ZM83.75 10.25H85V9H83.75H82.5H81.25H80V7.75V6.5V5.25H81.25H82.5H83.75H85V4H83.75H82.5H81.25H80H78.75V5.25V6.5V7.75V9V10.25H80H81.25H82.5H83.75ZM102.5 14H101.25H100H98.75H97.5H96.25H95H93.75H92.5H91.25H90V12.75V11.5V10.25V9V7.75V6.5V5.25V4V2.75V1.5V0.25H91.25H92.5H93.75H95H96.25H97.5H98.75H100H101.25H102.5H103.75V1.5V2.75V4V5.25V6.5V7.75V9V10.25V11.5V12.75V14H102.5ZM97.5 10.25V9V7.75V6.5V5.25H98.75H100V4H98.75H97.5H96.25H95H93.75V5.25H95H96.25V6.5V7.75V9V10.25H97.5Z" fill="url(#paint0_linear)"/>
<defs>
<linearGradient id="paint0_linear" x1="0.999999" y1="14" x2="106.5" y2="-6.43935e-06" gradientUnits="userSpaceOnUse">
<stop offset="0.00520833" stop-color="#E3A951"/>
<stop offset="0.00520833" stop-color="#E3A951"/>
<stop offset="0.328125" stop-color="#E6B162"/>
<stop offset="0.651042" stop-color="#F0BF75"/>
<stop offset="1" stop-color="#FACC88"/>
</linearGradient>
</defs>
</svg>
